TITLE ""
FILE "P1Q_t_0179-0187.mp3" MP3
  TRACK 01 AUDIO
    TITLE "P1Q_t_0179-0187_01"
    INDEX 01 00:00:00
  TRACK 02 AUDIO
    TITLE "P1Q_t_0179-0187_02"
    INDEX 01 00:01:16
  TRACK 03 AUDIO
    TITLE "P1Q_t_0179-0187_03"
    INDEX 01 00:01:39
  TRACK 04 AUDIO
    TITLE "P1Q_t_0179-0187_04"
    INDEX 01 00:05:21
  TRACK 05 AUDIO
    TITLE "P1Q_t_0179-0187_05"
    INDEX 01 00:05:45
  TRACK 06 AUDIO
    TITLE "P1Q_t_0179-0187_06"
    INDEX 01 00:09:70
  TRACK 07 AUDIO
    TITLE "P1Q_t_0179-0187_07"
    INDEX 01 00:10:40
  TRACK 08 AUDIO
    TITLE "P1Q_t_0179-0187_08"
    INDEX 01 00:11:63
  TRACK 09 AUDIO
    TITLE "P1Q_t_0179-0187_09"
    INDEX 01 00:12:12
  TRACK 10 AUDIO
    TITLE "P1Q_t_0179-0187_10"
    INDEX 01 00:16:31
  TRACK 11 AUDIO
    TITLE "P1Q_t_0179-0187_11"
    INDEX 01 00:16:50
  TRACK 12 AUDIO
    TITLE "P1Q_t_0179-0187_12"
    INDEX 01 00:21:42
  TRACK 13 AUDIO
    TITLE "P1Q_t_0179-0187_13"
    INDEX 01 00:22:14
  TRACK 14 AUDIO
    TITLE "P1Q_t_0179-0187_14"
    INDEX 01 00:23:43
  TRACK 15 AUDIO
    TITLE "P1Q_t_0179-0187_15"
    INDEX 01 00:23:66
  TRACK 16 AUDIO
    TITLE "P1Q_t_0179-0187_16"
    INDEX 01 00:25:36
  TRACK 17 AUDIO
    TITLE "P1Q_t_0179-0187_17"
    INDEX 01 00:25:55
  TRACK 18 AUDIO
    TITLE "P1Q_t_0179-0187_18"
    INDEX 01 00:30:70
  TRACK 19 AUDIO
    TITLE "P1Q_t_0179-0187_19"
    INDEX 01 00:31:40
  TRACK 20 AUDIO
    TITLE "P1Q_t_0179-0187_20"
    INDEX 01 00:32:65
  TRACK 21 AUDIO
    TITLE "P1Q_t_0179-0187_21"
    INDEX 01 00:33:35
  TRACK 22 AUDIO
    TITLE "P1Q_t_0179-0187_22"
    INDEX 01 00:34:54
  TRACK 23 AUDIO
    TITLE "P1Q_t_0179-0187_23"
    INDEX 01 00:35:01
  TRACK 24 AUDIO
    TITLE "P1Q_t_0179-0187_24"
    INDEX 01 00:38:19
  TRACK 25 AUDIO
    TITLE "P1Q_t_0179-0187_25"
    INDEX 01 00:38:36
  TRACK 26 AUDIO
    TITLE "P1Q_t_0179-0187_26"
    INDEX 01 00:43:00
  TRACK 27 AUDIO
    TITLE "P1Q_t_0179-0187_27"
    INDEX 01 00:43:45
  TRACK 28 AUDIO
    TITLE "P1Q_t_0179-0187_28"
    INDEX 01 00:44:51
  TRACK 29 AUDIO
    TITLE "P1Q_t_0179-0187_29"
    INDEX 01 00:45:01
  TRACK 30 AUDIO
    TITLE "P1Q_t_0179-0187_30"
    INDEX 01 00:47:41
  TRACK 31 AUDIO
    TITLE "P1Q_t_0179-0187_31"
    INDEX 01 00:47:61
  TRACK 32 AUDIO
    TITLE "P1Q_t_0179-0187_32"
    INDEX 01 00:52:58
  TRACK 33 AUDIO
    TITLE "P1Q_t_0179-0187_33"
    INDEX 01 00:53:28
  TRACK 34 AUDIO
    TITLE "P1Q_t_0179-0187_34"
    INDEX 01 00:54:35
  TRACK 35 AUDIO
    TITLE "P1Q_t_0179-0187_35"
    INDEX 01 00:54:57
  TRACK 36 AUDIO
    TITLE "P1Q_t_0179-0187_36"
    INDEX 01 00:57:51
  TRACK 37 AUDIO
    TITLE "P1Q_t_0179-0187_37"
    INDEX 01 00:57:73
  TRACK 38 AUDIO
    TITLE "P1Q_t_0179-0187_38"
    INDEX 01 01:02:56
  TRACK 39 AUDIO
    TITLE "P1Q_t_0179-0187_39"
    INDEX 01 01:03:27
  TRACK 40 AUDIO
    TITLE "P1Q_t_0179-0187_40"
    INDEX 01 01:04:48
  TRACK 41 AUDIO
    TITLE "P1Q_t_0179-0187_41"
    INDEX 01 01:04:67
  TRACK 42 AUDIO
    TITLE "P1Q_t_0179-0187_42"
    INDEX 01 01:08:69
  TRACK 43 AUDIO
    TITLE "P1Q_t_0179-0187_43"
    INDEX 01 01:09:13
  TRACK 44 AUDIO
    TITLE "P1Q_t_0179-0187_44"
    INDEX 01 01:13:07
  TRACK 45 AUDIO
    TITLE "P1Q_t_0179-0187_45"
    INDEX 01 01:13:54
  TRACK 46 AUDIO
    TITLE "P1Q_t_0179-0187_46"
    INDEX 01 01:15:10
  TRACK 47 AUDIO
    TITLE "P1Q_t_0179-0187_47"
    INDEX 01 01:15:32
  TRACK 48 AUDIO
    TITLE "P1Q_t_0179-0187_48"
    INDEX 01 01:17:58
  TRACK 49 AUDIO
    TITLE "P1Q_t_0179-0187_49"
    INDEX 01 01:18:03
  TRACK 50 AUDIO
    TITLE "P1Q_t_0179-0187_50"
    INDEX 01 01:22:42
  TRACK 51 AUDIO
    TITLE "P1Q_t_0179-0187_51"
    INDEX 01 01:23:12
  TRACK 52 AUDIO
    TITLE "P1Q_t_0179-0187_52"
    INDEX 01 01:24:25
  TRACK 53 AUDIO
    TITLE "P1Q_t_0179-0187_53"
    INDEX 01 01:24:46
  TRACK 54 AUDIO
    TITLE "P1Q_t_0179-0187_54"
    INDEX 01 01:25:67
  TRACK 55 AUDIO
    TITLE "P1Q_t_0179-0187_55"
    INDEX 01 01:26:12
  TRACK 56 AUDIO
    TITLE "P1Q_t_0179-0187_56"
    INDEX 01 01:32:46
